HIERARCHY
ROOT Hips
{
  OFFSET 7.69185 40.1751 -12.3806
  CHANNELS 6 Xposition Yposition Zposition Zrotation Xrotation Yrotation
  JOINT Spine
  {
    OFFSET 12.2926 0 0
    CHANNELS 6 Xposition Yposition Zposition Zrotation Xrotation Yrotation
    JOINT Spine1
    {
      OFFSET 19.4953 -0.0133253 -1.05669e-05
      CHANNELS 6 Xposition Yposition Zposition Zrotation Xrotation Yrotation
      JOINT Spine2
      {
        OFFSET 20.5878 -0.00090307 0
        CHANNELS 6 Xposition Yposition Zposition Zrotation Xrotation Yrotation
        JOINT LeftShoulder
        {
          OFFSET 25.3216 -12.3262 14.3928
          CHANNELS 6 Xposition Yposition Zposition Zrotation Xrotation Yrotation
          JOINT LeftArm
          {
            OFFSET 29.1658 -1.14981e-05 -0.0117109
            CHANNELS 6 Xposition Yposition Zposition Zrotation Xrotation Yrotation
            JOINT LeftForeArm
            {
              OFFSET 34.2728 0.00186694 -0.00045957
              CHANNELS 6 Xposition Yposition Zposition Zrotation Xrotation Yrotation
              JOINT LeftHand
              {
                OFFSET 27.0039 0.0005098 0.00139064
                CHANNELS 6 Xposition Yposition Zposition Zrotation Xrotation Yrotation
                End Site
                {
                  OFFSET 0 0 0
                }
              }
            }
          }
        }
        JOINT Neck
        {
          OFFSET 33.3146 -4.47578 6.45077e-05
          CHANNELS 6 Xposition Yposition Zposition Zrotation Xrotation Yrotation
          JOINT Head
          {
            OFFSET 25.2279 0 7.11367e-05
            CHANNELS 6 Xposition Yposition Zposition Zrotation Xrotation Yrotation
            End Site
            {
              OFFSET 0 0 0
            }
          }
        }
        JOINT RightShoulder
        {
          OFFSET 25.3216 -12.3265 -14.3925
          CHANNELS 6 Xposition Yposition Zposition Zrotation Xrotation Yrotation
          JOINT RightArm
          {
            OFFSET 29.1709 0.000285289 0.00120856
            CHANNELS 6 Xposition Yposition Zposition Zrotation Xrotation Yrotation
            JOINT RightForeArm
            {
              OFFSET 34.2723 0.000157042 0
              CHANNELS 6 Xposition Yposition Zposition Zrotation Xrotation Yrotation
              JOINT RightHand
              {
                OFFSET 27.0066 -0.00358254 0.000647111
                CHANNELS 6 Xposition Yposition Zposition Zrotation Xrotation Yrotation
                End Site
                {
                  OFFSET 0 0 0
                }
              }
            }
          }
        }
      }
    }
  }
  JOINT LeftUpLeg
  {
    OFFSET -1.76553 0.414318 32.1765
    CHANNELS 6 Xposition Yposition Zposition Zrotation Xrotation Yrotation
    JOINT LeftLeg
    {
      OFFSET 28.0781 0.000257312 0
      CHANNELS 6 Xposition Yposition Zposition Zrotation Xrotation Yrotation
      JOINT LeftFoot
      {
        OFFSET 17.9705 -0.000410316 0
        CHANNELS 6 Xposition Yposition Zposition Zrotation Xrotation Yrotation
        JOINT LeftToe
        {
          OFFSET 6.72703 11.0288 -1.90628e-05
          CHANNELS 6 Xposition Yposition Zposition Zrotation Xrotation Yrotation
          End Site
          {
            OFFSET 0 0 0
          }
        }
      }
    }
  }
  JOINT RightUpLeg
  {
    OFFSET -1.76546 0.414069 -32.1766
    CHANNELS 6 Xposition Yposition Zposition Zrotation Xrotation Yrotation
    JOINT RightLeg
    {
      OFFSET 28.0784 0.00200947 0
      CHANNELS 6 Xposition Yposition Zposition Zrotation Xrotation Yrotation
      JOINT RightFoot
      {
        OFFSET 17.9705 -0.00309221 2.3816e-05
        CHANNELS 6 Xposition Yposition Zposition Zrotation Xrotation Yrotation
        JOINT RightToe
        {
          OFFSET 6.72693 11.0289 0.0004195
          CHANNELS 6 Xposition Yposition Zposition Zrotation Xrotation Yrotation
          End Site
          {
            OFFSET 0 0 0
          }
        }
      }
    }
  }
}
MOTION
Frames:	6
Frame Time:	0.0333333
7.69185 40.1751 -12.3806 122.651 78.6234 -30.4711 12.2926 6.90117e-06 -3.30633e-06 18.1047 5.94027 -5.15782 19.4953 -0.0133243 -9.45561e-06 -14.8654 7.5215 -4.13511 20.5878 -0.000902436 -1.90321e-06 -3.31721 8.41526 -4.4866 25.3216 -12.3262 14.3928 -178.369 -20.5779 -86.633 29.1658 -3.14066e-06 -0.0117178 -5.61498 -5.22381 35.4607 34.2728 -1.30338e-06 -2.93371e-06 -29.6962 48.8703 23.7898 27.0039 0.000513223 0.00137274 54.356 -39.1055 37.607 33.3143 -4.47577 5.07737e-05 33.1178 -7.11889 14.676 25.2276 -9.82297e-06 6.91628e-05 -14.8901 8.46137 7.18461 25.3216 -12.3265 -14.3925 177.313 -8.18451 92.2436 29.1709 0.000284558 0.00121801 -31.9596 16.2147 -21.1096 34.2723 0.000166293 1.65921e-06 -51.6051 4.22024 7.8563 27.0066 -0.00359229 0.000644995 169.854 67.8811 143.418 -1.76553 0.414317 32.1765 -81.7169 -0.437788 -179.494 28.0781 0.000270984 5.13876e-07 -37.5966 4.50432 3.4605 17.9705 -0.000408045 9.22928e-07 15.9945 -41.2686 11.7395 6.72703 11.0288 -1.84512e-05 90.0001 -0.000108963 0.000255669 -1.76546 0.414069 -32.1766 50.713 -17.0932 144.813 28.0785 0.00199868 -4.55729e-06 -30.9697 6.53005 3.90501 17.9705 -0.00308241 2.29883e-05 -17.9941 -11.0912 -3.5127 6.72693 11.0289 0.000415374 89.9999 0.00152794 -0.00697789 
7.69184 35.46 -0.842124 125.365 79.5514 -29.5817 12.2926 6.90117e-06 -3.30633e-06 19.2003 3.80706 -9.13778 19.4953 -0.0133243 -9.45561e-06 -14.3601 6.89248 -4.79369 20.5878 -0.000902436 -1.90321e-06 -3.26854 8.03189 -5.10355 25.3216 -12.3262 14.3928 -178.196 -16.9706 -88.4738 29.1658 -3.14066e-06 -0.0117178 -7.62138 -6.56879 36.8254 34.2728 -1.30338e-06 -2.93371e-06 -32.8812 38.7728 22.1334 27.0039 0.000513223 0.00137274 53.9702 -41.9858 37.137 33.3143 -4.47577 5.07737e-05 32.2498 -5.71055 15.9987 25.2276 -9.82297e-06 6.91628e-05 -16.632 8.22806 7.6057 25.3216 -12.3265 -14.3925 178.327 -6.1307 90.3064 29.1709 0.000284558 0.00121801 -27.8343 15.3021 -24.4712 34.2723 0.000166293 1.65921e-06 -50.3491 -3.38838 -1.64728 27.0066 -0.00359229 0.000644995 179.936 70.5484 135.842 -1.76553 0.414317 32.1765 -78.448 2.43384 177.017 28.0781 0.000270984 5.13876e-07 -46.9648 4.09165 4.3711 17.9705 -0.000408045 9.22928e-07 -6.05361 -43.3478 -0.442779 6.72703 11.0288 -1.84512e-05 90 -0.000140586 0.00018568 -1.76546 0.414069 -32.1766 42.0939 -14.3027 143.885 28.0785 0.00199868 -4.55729e-06 -60.5901 -4.59946 -8.09532 17.9705 -0.00308241 2.29883e-05 -16.6302 -2.96194 13.781 6.72693 11.0289 0.000415374 89.9999 0.0015253 -0.00696521 
7.69184 29.5624 10.6963 128.02 80.1835 -31.485 12.2926 6.90117e-06 -3.30633e-06 19.6221 2.22344 -10.8386 19.4953 -0.0133243 -9.45561e-06 -14.1732 6.08149 -5.24523 20.5878 -0.000902436 -1.90321e-06 -3.24655 7.36379 -5.52894 25.3216 -12.3262 14.3928 -178.061 -13.4471 -90.3882 29.1658 -3.14066e-06 -0.0117178 -9.74398 -8.08061 38.382 34.2728 -1.30338e-06 -2.93371e-06 -36.1013 29.8081 19.5513 27.0039 0.000513223 0.00137274 53.2662 -45.4987 37.1895 33.3143 -4.47577 5.07737e-05 32.6099 -2.9754 17.1108 25.2276 -9.82297e-06 6.91628e-05 -18.3341 7.48018 7.65077 25.3216 -12.3265 -14.3925 179.258 -3.72578 88.2471 29.1709 0.000284558 0.00121801 -24.072 14.2256 -27.4289 34.2723 0.000166293 1.65921e-06 -49.3274 -12.5875 -12.0164 27.0066 -0.00359229 0.000644995 -165.692 72.9085 124.277 -1.76553 0.414317 32.1765 -82.9022 5.08421 174.244 28.0781 0.000270984 5.13876e-07 -71.7334 2.1145 6.37787 17.9705 -0.000408045 9.22928e-07 -12.2024 -44.5652 -9.93232 6.72703 11.0288 -1.84512e-05 89.9999 -0.000107471 0.000230304 -1.76546 0.414069 -32.1766 35.2178 -11.6367 144.403 28.0785 0.00199868 -4.55729e-06 -85.5077 -1.42362 -17.5433 17.9705 -0.00308241 2.29883e-05 -5.79358 -7.90262 24.8865 6.72693 11.0289 0.000415374 89.9997 0.00157367 -0.00690839 
7.69183 26.7429 22.2348 131.174 80.6793 -39.2505 12.2926 6.90117e-06 -3.30633e-06 18.6788 2.54982 -5.83974 19.4953 -0.0133243 -9.45561e-06 -14.8574 4.77782 -5.16538 20.5878 -0.000902436 -1.90321e-06 -3.25945 5.99697 -5.41863 25.3216 -12.3262 14.3928 -178.178 -9.82663 -92.3665 29.1658 -3.14066e-06 -0.0117178 -12.073 -9.90034 40.4701 34.2728 -1.30338e-06 -2.93371e-06 -39.7789 23.1331 17.1646 27.0039 0.000513223 0.00137274 52.0769 -50.1572 38.5661 33.3143 -4.47577 5.07737e-05 36.5111 0.871014 15.1522 25.2276 -9.82297e-06 6.91628e-05 -19.2823 6.34971 7.53552 25.3216 -12.3265 -14.3925 179.885 -0.0174541 85.8985 29.1709 0.000284558 0.00121801 -21.7168 13.2985 -28.681 34.2723 0.000166293 1.65921e-06 -47.7413 -26.84 -24.6684 27.0066 -0.00359229 0.000644995 -142.596 74.7655 104.868 -1.76553 0.414317 32.1765 -85.5454 8.62865 170.675 28.0781 0.000270984 5.13876e-07 -110.579 -3.73236 9.83609 17.9705 -0.000408045 9.22928e-07 23.606 -46.6589 -5.46548 6.72703 11.0288 -1.84512e-05 90 -0.000146048 0.000183612 -1.76546 0.414069 -32.1766 11.9024 -3.46965 147.602 28.0785 0.00199868 -4.55729e-06 -111.304 8.03834 -19.7279 17.9705 -0.00308241 2.29883e-05 23.7091 -10.1985 28.7925 6.72693 11.0289 0.000415374 89.9999 0.0015173 -0.0069719 
7.7752 29.5856 33.7733 145.074 82.4781 -60.4643 12.2926 6.90117e-06 -3.30633e-06 17.2685 3.13728 1.29581 19.4953 -0.0133243 -9.45561e-06 -15.915 3.23676 -4.86113 20.5878 -0.000902436 -1.90321e-06 -3.30195 4.03397 -5.03831 25.3216 -12.3262 14.3928 -178.221 -6.75398 -94.2374 29.1658 -3.14066e-06 -0.0117178 -14.8564 -12.2327 42.8943 34.2728 -1.30338e-06 -2.93371e-06 -42.3144 17.6232 13.887 27.0039 0.000513223 0.00137274 49.8711 -56.5212 41.0626 33.3143 -4.47577 5.07737e-05 42.2185 4.21915 13.42 25.2276 -9.82297e-06 6.91628e-05 -19.6492 4.78547 6.39127 25.3216 -12.3265 -14.3925 -179.658 3.98574 83.6557 29.1709 0.000284558 0.00121801 -18.6136 11.9572 -30.169 34.2723 0.000166293 1.65921e-06 -50.0469 -43.6277 -38.1572 27.0066 -0.00359229 0.000644995 -116.974 74.7829 84.0561 -1.76553 0.414317 32.1765 -63.793 9.65561 164.54 28.0781 0.000270984 5.13876e-07 -131.724 -12.336 13.47 17.9705 -0.000408045 9.22928e-07 76.5235 -49.4132 8.26686 6.72703 11.0288 -1.84512e-05 89.9999 -0.000249585 1.88488e-05 -1.76546 0.414069 -32.1766 -19.1054 4.29525 154.875 28.0785 0.00199868 -4.55729e-06 -114.132 1.93429 -4.30917 17.9705 -0.00308241 2.29883e-05 22.5116 -10.0304 18.2714 6.72693 11.0289 0.000415374 89.9999 0.00151693 -0.00696674 
7.96968 36.7036 45.3117 166.884 83.5003 -89.1855 12.2926 6.90117e-06 -3.30633e-06 15.9128 3.09114 7.74552 19.4953 -0.0133243 -9.45561e-06 -17.1067 1.58016 -4.51043 20.5878 -0.000902436 -1.90321e-06 -3.37017 1.45543 -4.52689 25.3216 -12.3262 14.3928 -178.302 -5.08664 -95.9225 29.1658 -3.14066e-06 -0.0117178 -18.6988 -15.6836 45.9189 34.2728 -1.30338e-06 -2.93371e-06 -41.9709 12.2896 8.945 27.0039 0.000513223 0.00137274 44.5887 -65.1114 44.1895 33.3143 -4.47577 5.07737e-05 48.4654 7.78787 10.7267 25.2276 -9.82297e-06 6.91628e-05 -19.4762 2.63347 2.79181 25.3216 -12.3265 -14.3925 -179.741 7.57595 81.8894 29.1709 0.000284558 0.00121801 -12.0015 8.95449 -34.4185 34.2723 0.000166293 1.65921e-06 -62.9618 -59.7456 -58.4396 27.0066 -0.00359229 0.000644995 -95.8262 74.542 69.765 -1.76553 0.414317 32.1765 -33.7287 3.7625 167.631 28.0781 0.000270984 5.13876e-07 -123.288 -12.6233 18.41 17.9705 -0.000408045 9.22928e-07 107.485 -47.7936 21.4375 6.72703 11.0288 -1.84512e-05 90 -0.000148131 0.000179782 -1.76546 0.414069 -32.1766 -33.7894 5.32991 162.575 28.0785 0.00199868 -4.55729e-06 -94.7226 -0.854149 10.2252 17.9705 -0.00308241 2.29883e-05 10.2062 -4.3052 9.08098 6.72693 11.0289 0.000415374 89.9999 0.00151592 -0.00696868 
